<svg xmlns="http://www.w3.org/2000/svg" xmlns:xlink="http://www.w3.org/1999/xlink" width="500" zoomAndPan="magnify" viewBox="0 0 375 112.499997" height="150" preserveAspectRatio="xMidYMid meet" version="1.0"><defs><g/><clipPath id="id1"><path d="M 28.050781 26.328125 L 96.789062 26.328125 L 96.789062 85.902344 L 28.050781 85.902344 Z M 28.050781 26.328125 " clip-rule="nonzero"/></clipPath></defs><g clip-path="url(#id1)"><path fill="#008037" d="M 82.167969 68.285156 L 74.960938 75.519531 L 66.234375 84.273438 C 65.191406 85.320312 63.800781 85.898438 62.3125 85.898438 C 60.976562 85.898438 59.695312 85.417969 58.703125 84.550781 L 58.625 84.492188 L 58.640625 84.5 L 49.796875 75.625 L 42.902344 68.707031 L 33.839844 59.613281 C 32.898438 58.667969 32.066406 57.648438 31.347656 56.5625 C 29.191406 53.308594 28.0625 49.480469 28.109375 45.472656 C 28.164062 40.980469 29.726562 36.734375 32.542969 33.339844 L 34.265625 36.914062 C 35.8125 39.636719 36.191406 40.496094 36.191406 40.496094 C 35.644531 45.386719 38.300781 51.433594 38.300781 51.433594 C 36.867188 56.46875 36.804688 59.207031 36.804688 59.207031 C 36.804688 59.207031 36.527344 60.734375 36.921875 61.394531 C 37.3125 62.058594 38.046875 61.726562 38.179688 61.378906 C 38.308594 61.039062 39.050781 58.429688 39.394531 57.324219 C 39.734375 56.214844 40.519531 53.210938 41.242188 52.90625 C 41.964844 52.605469 42.480469 53.070312 42.523438 54.390625 C 42.5625 55.710938 43.785156 63.25 43.925781 63.792969 C 44.070312 64.332031 44.640625 65.609375 45.804688 64.515625 C 46.78125 62.992188 45.5625 54.484375 45.5625 54.484375 C 45.5625 54.484375 45.433594 53.625 45.953125 53.566406 C 46.480469 53.511719 46.453125 53.597656 46.96875 55.53125 C 47.484375 57.460938 48.960938 62.164062 49.320312 63.507812 C 49.679688 64.855469 49.800781 65.511719 50.242188 65.660156 C 50.671875 65.816406 51.886719 65.578125 51.691406 63.785156 C 51.496094 61.996094 50.804688 58.179688 50.1875 55.828125 C 49.570312 53.480469 49.199219 52.828125 49.839844 52.507812 C 50.484375 52.183594 49.792969 51.03125 52.441406 54.378906 C 55.460938 57.839844 57.082031 60.207031 57.472656 60.398438 C 57.859375 60.59375 59.066406 60.304688 58.765625 59.246094 C 58.46875 58.179688 57.316406 56.085938 56.660156 55.007812 C 56.007812 53.933594 52.542969 49.230469 51.910156 47.601562 C 51.277344 45.96875 50.683594 43.5625 51.515625 42.804688 C 52.347656 42.046875 55.046875 41.652344 56.058594 41.726562 C 57.066406 41.800781 58.214844 41.644531 59.1875 40.945312 C 60.160156 40.242188 60.496094 39.011719 60.40625 38.09375 C 60.023438 37.246094 59.191406 38.367188 58.613281 38.597656 C 58.03125 38.824219 52.671875 38.421875 51.621094 38.015625 C 50.566406 37.609375 48.980469 36.683594 47.972656 36.496094 C 46.96875 36.304688 45.53125 36.285156 44.886719 35.34375 C 44.25 34.40625 43.546875 32.535156 43.546875 32.535156 L 41.378906 27.296875 C 43.308594 26.660156 45.34375 26.324219 47.433594 26.324219 C 48.300781 26.324219 49.179688 26.382812 50.046875 26.5 C 54.261719 27.066406 58.09375 28.976562 61.128906 32.019531 L 62.320312 33.214844 L 63.515625 32.019531 C 64.816406 30.714844 66.269531 29.613281 67.835938 28.742188 C 69.847656 27.621094 72.054688 26.871094 74.375 26.53125 C 75.304688 26.394531 76.257812 26.324219 77.214844 26.324219 C 79.320312 26.324219 81.375 26.667969 83.320312 27.3125 L 79.859375 33.976562 C 79.859375 33.976562 78.996094 35.773438 78.277344 36.652344 C 77.554688 37.53125 76.121094 37.429688 75.105469 37.53125 C 74.085938 37.628906 72.421875 38.414062 71.339844 38.730469 C 70.253906 39.035156 64.882812 38.96875 64.320312 38.6875 C 63.761719 38.410156 63.03125 37.21875 62.578125 38.035156 C 62.410156 38.9375 62.632812 40.199219 63.542969 40.980469 C 64.453125 41.761719 65.582031 42.015625 66.59375 42.027344 C 67.605469 42.046875 70.269531 42.683594 71.027344 43.507812 C 71.789062 44.328125 70.988281 46.675781 70.21875 48.25 C 69.449219 49.816406 65.585938 54.195312 64.84375 55.210938 C 64.097656 56.226562 62.765625 58.214844 62.375 59.246094 C 61.984375 60.277344 63.164062 60.667969 63.5625 60.511719 C 63.96875 60.347656 65.792969 58.136719 69.101562 54.953125 C 72.03125 51.855469 71.242188 52.9375 71.847656 53.316406 C 72.460938 53.695312 72.039062 54.308594 71.214844 56.59375 C 70.394531 58.882812 69.378906 62.621094 69.027344 64.390625 C 68.675781 66.160156 69.863281 66.507812 70.3125 66.390625 C 70.757812 66.273438 70.941406 65.632812 71.417969 64.324219 C 71.886719 63.015625 73.765625 58.460938 74.449219 56.582031 C 75.128906 54.699219 75.113281 54.613281 75.628906 54.714844 C 76.144531 54.816406 75.941406 55.660156 75.941406 55.660156 C 75.941406 55.660156 73.988281 64.03125 74.828125 65.632812 C 75.894531 66.824219 76.570312 65.601562 76.761719 65.074219 C 76.953125 64.554688 78.828125 57.144531 78.976562 55.832031 C 79.132812 54.523438 79.6875 54.109375 80.382812 54.46875 C 81.078125 54.832031 81.59375 57.894531 81.84375 59.03125 C 82.085938 60.164062 82.597656 62.824219 82.699219 63.179688 C 82.800781 63.535156 83.503906 63.929688 83.949219 63.304688 C 84.398438 62.679688 84.257812 61.136719 84.257812 61.136719 C 84.257812 61.136719 84.425781 58.402344 83.445312 53.253906 C 83.445312 53.253906 86.617188 47.46875 86.492188 42.546875 C 86.492188 42.546875 86.949219 41.726562 88.722656 39.148438 L 92.148438 33.386719 C 94.824219 36.636719 96.378906 40.667969 96.558594 44.921875 C 96.789062 50.359375 94.730469 55.679688 90.914062 59.507812 L 82.167969 68.285156 " fill-opacity="1" fill-rule="nonzero"/></g><g fill="#000000" fill-opacity="1"><g transform="translate(120.647823, 75.859008)"><g><path d="M 1.078125 -14.9375 C 1.078125 -16.976562 1.4375 -18.9375 2.15625 -20.8125 C 2.875 -22.6875 3.921875 -24.332031 5.296875 -25.75 C 6.679688 -27.164062 8.394531 -28.300781 10.4375 -29.15625 C 12.488281 -30.007812 14.835938 -30.4375 17.484375 -30.4375 C 21.117188 -30.4375 24.15625 -29.675781 26.59375 -28.15625 C 29.039062 -26.644531 30.867188 -24.695312 32.078125 -22.3125 L 21.578125 -19.140625 C 20.554688 -20.609375 19.175781 -21.34375 17.4375 -21.34375 C 15.957031 -21.34375 14.707031 -20.785156 13.6875 -19.671875 C 12.664062 -18.554688 12.15625 -16.976562 12.15625 -14.9375 C 12.15625 -12.894531 12.664062 -11.3125 13.6875 -10.1875 C 14.707031 -9.070312 15.957031 -8.515625 17.4375 -8.515625 C 19.175781 -8.515625 20.554688 -9.253906 21.578125 -10.734375 L 32.078125 -7.546875 C 30.867188 -5.160156 29.039062 -3.210938 26.59375 -1.703125 C 24.15625 -0.191406 21.117188 0.5625 17.484375 0.5625 C 14.835938 0.5625 12.488281 0.140625 10.4375 -0.703125 C 8.394531 -1.554688 6.679688 -2.691406 5.296875 -4.109375 C 3.921875 -5.535156 2.875 -7.1875 2.15625 -9.0625 C 1.4375 -10.9375 1.078125 -12.894531 1.078125 -14.9375 Z M 1.078125 -14.9375 "/></g></g></g><g fill="#000000" fill-opacity="1"><g transform="translate(153.353766, 75.859008)"><g><path d="M 32.765625 0 L 21.96875 0 L 21.96875 -16.8125 C 21.96875 -18.28125 21.632812 -19.347656 20.96875 -20.015625 C 20.3125 -20.679688 19.492188 -21.015625 18.515625 -21.015625 C 18.171875 -21.015625 17.757812 -20.910156 17.28125 -20.703125 C 16.8125 -20.492188 16.335938 -20.207031 15.859375 -19.84375 C 15.390625 -19.488281 14.945312 -19.046875 14.53125 -18.515625 C 14.113281 -17.984375 13.773438 -17.394531 13.515625 -16.75 L 13.515625 0 L 2.71875 0 L 2.71875 -41.453125 L 13.515625 -41.453125 L 13.515625 -25.4375 C 14.578125 -27.0625 15.957031 -28.300781 17.65625 -29.15625 C 19.363281 -30.007812 21.273438 -30.4375 23.390625 -30.4375 C 25.472656 -30.4375 27.140625 -30.078125 28.390625 -29.359375 C 29.640625 -28.640625 30.582031 -27.738281 31.21875 -26.65625 C 31.863281 -25.582031 32.28125 -24.421875 32.46875 -23.171875 C 32.664062 -21.921875 32.765625 -20.742188 32.765625 -19.640625 Z M 32.765625 0 "/></g></g></g><g fill="#000000" fill-opacity="1"><g transform="translate(188.614856, 75.859008)"><g><path d="M 11.53125 0.5625 C 10.050781 0.5625 8.664062 0.316406 7.375 -0.171875 C 6.09375 -0.660156 4.988281 -1.332031 4.0625 -2.1875 C 3.132812 -3.039062 2.40625 -4.050781 1.875 -5.21875 C 1.34375 -6.394531 1.078125 -7.664062 1.078125 -9.03125 C 1.078125 -10.539062 1.398438 -11.921875 2.046875 -13.171875 C 2.691406 -14.421875 3.582031 -15.5 4.71875 -16.40625 C 5.851562 -17.3125 7.203125 -18.007812 8.765625 -18.5 C 10.335938 -19 12.070312 -19.25 13.96875 -19.25 C 16.394531 -19.25 18.398438 -18.867188 19.984375 -18.109375 L 19.984375 -19.015625 C 19.984375 -20.421875 19.578125 -21.460938 18.765625 -22.140625 C 17.953125 -22.828125 16.632812 -23.171875 14.8125 -23.171875 C 13.113281 -23.171875 11.546875 -22.894531 10.109375 -22.34375 C 8.671875 -21.789062 7.15625 -20.988281 5.5625 -19.9375 L 2.4375 -26.625 C 6.375 -29.164062 10.863281 -30.4375 15.90625 -30.4375 C 20.664062 -30.4375 24.332031 -29.375 26.90625 -27.25 C 29.488281 -25.132812 30.78125 -21.957031 30.78125 -17.71875 L 30.78125 -11.921875 C 30.78125 -10.898438 30.96875 -10.191406 31.34375 -9.796875 C 31.71875 -9.398438 32.398438 -9.160156 33.390625 -9.078125 L 33.390625 0 C 32.398438 0.1875 31.46875 0.328125 30.59375 0.421875 C 29.726562 0.515625 28.957031 0.5625 28.28125 0.5625 C 26.34375 0.5625 24.875 0.210938 23.875 -0.484375 C 22.875 -1.179688 22.222656 -2.210938 21.921875 -3.578125 L 21.6875 -4.65625 C 20.363281 -2.945312 18.832031 -1.648438 17.09375 -0.765625 C 15.351562 0.117188 13.5 0.5625 11.53125 0.5625 Z M 14.765625 -7.15625 C 15.410156 -7.15625 16.070312 -7.257812 16.75 -7.46875 C 17.425781 -7.675781 18.03125 -7.953125 18.5625 -8.296875 C 18.976562 -8.597656 19.316406 -8.925781 19.578125 -9.28125 C 19.847656 -9.644531 19.984375 -10.015625 19.984375 -10.390625 L 19.984375 -12.609375 C 19.335938 -12.835938 18.632812 -13.023438 17.875 -13.171875 C 17.125 -13.328125 16.445312 -13.40625 15.84375 -13.40625 C 14.519531 -13.40625 13.421875 -13.082031 12.546875 -12.4375 C 11.679688 -11.789062 11.25 -10.976562 11.25 -10 C 11.25 -9.164062 11.578125 -8.484375 12.234375 -7.953125 C 12.898438 -7.421875 13.742188 -7.15625 14.765625 -7.15625 Z M 14.765625 -7.15625 "/></g></g></g><g fill="#000000" fill-opacity="1"><g transform="translate(222.910669, 75.859008)"><g><path d="M 23 -20.671875 C 20.914062 -20.671875 19.019531 -20.441406 17.3125 -19.984375 C 15.613281 -19.535156 14.347656 -18.78125 13.515625 -17.71875 L 13.515625 0 L 2.71875 0 L 2.71875 -29.859375 L 12.609375 -29.859375 L 12.609375 -24.1875 C 13.671875 -26.195312 14.984375 -27.738281 16.546875 -28.8125 C 18.117188 -29.894531 19.816406 -30.4375 21.640625 -30.4375 C 22.359375 -30.4375 22.8125 -30.414062 23 -30.375 Z M 23 -20.671875 "/></g></g></g><g fill="#000000" fill-opacity="1"><g transform="translate(246.588407, 75.859008)"><g><path d="M 2.71875 0 L 2.71875 -29.859375 L 13.515625 -29.859375 L 13.515625 0 Z M 2.71875 -32.359375 L 2.71875 -41.453125 L 13.515625 -41.453125 L 13.515625 -32.359375 Z M 2.71875 -32.359375 "/></g></g></g><g fill="#000000" fill-opacity="1"><g transform="translate(262.827821, 75.859008)"><g><path d="M 16.015625 0.5625 C 14.765625 0.5625 13.421875 0.46875 11.984375 0.28125 C 10.546875 0.09375 9.132812 -0.148438 7.75 -0.453125 C 6.363281 -0.753906 5.023438 -1.125 3.734375 -1.5625 C 2.453125 -2 1.335938 -2.484375 0.390625 -3.015625 L 4.546875 -10.328125 C 6.628906 -9.234375 8.613281 -8.398438 10.5 -7.828125 C 12.394531 -7.265625 14.15625 -6.984375 15.78125 -6.984375 C 17.675781 -6.984375 18.625 -7.457031 18.625 -8.40625 C 18.625 -8.894531 18.242188 -9.328125 17.484375 -9.703125 C 16.734375 -10.085938 15.296875 -10.546875 13.171875 -11.078125 C 11.054688 -11.640625 9.273438 -12.203125 7.828125 -12.765625 C 6.390625 -13.335938 5.234375 -13.972656 4.359375 -14.671875 C 3.492188 -15.378906 2.875 -16.15625 2.5 -17 C 2.125 -17.851562 1.9375 -18.847656 1.9375 -19.984375 C 1.9375 -21.503906 2.242188 -22.90625 2.859375 -24.1875 C 3.484375 -25.476562 4.363281 -26.59375 5.5 -27.53125 C 6.644531 -28.476562 8 -29.207031 9.5625 -29.71875 C 11.132812 -30.226562 12.847656 -30.484375 14.703125 -30.484375 C 16.710938 -30.484375 18.863281 -30.195312 21.15625 -29.625 C 23.445312 -29.0625 25.78125 -28.234375 28.15625 -27.140625 L 24.015625 -20.265625 C 21.898438 -21.253906 20.140625 -21.960938 18.734375 -22.390625 C 17.335938 -22.828125 15.992188 -23.046875 14.703125 -23.046875 C 13.867188 -23.046875 13.195312 -22.921875 12.6875 -22.671875 C 12.175781 -22.429688 11.921875 -22.046875 11.921875 -21.515625 C 11.921875 -21.210938 11.992188 -20.957031 12.140625 -20.75 C 12.296875 -20.539062 12.5625 -20.34375 12.9375 -20.15625 C 13.320312 -19.96875 13.84375 -19.769531 14.5 -19.5625 C 15.164062 -19.351562 15.992188 -19.132812 16.984375 -18.90625 C 19.253906 -18.34375 21.164062 -17.75 22.71875 -17.125 C 24.269531 -16.5 25.507812 -15.816406 26.4375 -15.078125 C 27.363281 -14.335938 28.023438 -13.503906 28.421875 -12.578125 C 28.816406 -11.648438 29.015625 -10.582031 29.015625 -9.375 C 29.015625 -6.300781 27.847656 -3.875 25.515625 -2.09375 C 23.191406 -0.320312 20.023438 0.5625 16.015625 0.5625 Z M 16.015625 0.5625 "/></g></g></g><g fill="#000000" fill-opacity="1"><g transform="translate(292.75149, 75.859008)"><g><path d="M 23.671875 -1.640625 C 22.160156 -1.003906 20.539062 -0.46875 18.8125 -0.03125 C 17.09375 0.40625 15.398438 0.625 13.734375 0.625 C 12.523438 0.625 11.367188 0.472656 10.265625 0.171875 C 9.171875 -0.128906 8.21875 -0.617188 7.40625 -1.296875 C 6.59375 -1.984375 5.945312 -2.875 5.46875 -3.96875 C 5 -5.070312 4.765625 -6.4375 4.765625 -8.0625 L 4.765625 -21.75 L 1.078125 -21.75 L 1.078125 -29.859375 L 4.765625 -29.859375 L 4.765625 -39.234375 L 15.5625 -39.234375 L 15.5625 -29.859375 L 21.40625 -29.859375 L 21.40625 -21.75 L 15.5625 -21.75 L 15.5625 -11.875 C 15.5625 -10.882812 15.769531 -10.191406 16.1875 -9.796875 C 16.601562 -9.398438 17.171875 -9.203125 17.890625 -9.203125 C 18.421875 -9.203125 19.023438 -9.285156 19.703125 -9.453125 C 20.378906 -9.617188 21.0625 -9.851562 21.75 -10.15625 Z M 23.671875 -1.640625 "/></g></g></g></svg>