<svg xmlns="http://www.w3.org/2000/svg" xmlns:xlink="http://www.w3.org/1999/xlink" width="250" zoomAndPan="magnify" viewBox="0 0 187.5 44.999999" height="60" preserveAspectRatio="xMidYMid meet" version="1.0"><defs><g/><clipPath id="id1"><path d="M 11.300781 5.863281 L 48.78125 5.863281 L 48.78125 38.347656 L 11.300781 38.347656 Z M 11.300781 5.863281 " clip-rule="nonzero"/></clipPath></defs><g clip-path="url(#id1)"><path fill="#008037" d="M 40.808594 28.742188 L 36.878906 32.6875 L 36.878906 32.683594 L 32.121094 37.460938 C 31.550781 38.03125 30.792969 38.34375 29.984375 38.34375 C 29.253906 38.34375 28.554688 38.085938 28.015625 37.613281 L 27.972656 37.578125 L 27.980469 37.582031 L 23.15625 32.742188 L 19.398438 28.972656 L 14.457031 24.011719 C 13.945312 23.496094 13.488281 22.941406 13.097656 22.347656 C 11.921875 20.574219 11.304688 18.488281 11.332031 16.304688 C 11.363281 13.851562 12.214844 11.539062 13.75 9.6875 L 14.691406 11.632812 C 15.535156 13.121094 15.742188 13.589844 15.742188 13.589844 C 15.441406 16.257812 16.890625 19.550781 16.890625 19.550781 C 16.109375 22.296875 16.074219 23.792969 16.074219 23.792969 C 16.074219 23.792969 15.921875 24.625 16.136719 24.984375 C 16.351562 25.347656 16.75 25.164062 16.824219 24.976562 C 16.894531 24.789062 17.296875 23.367188 17.484375 22.765625 C 17.671875 22.160156 18.097656 20.523438 18.496094 20.355469 C 18.886719 20.191406 19.167969 20.445312 19.191406 21.167969 C 19.214844 21.886719 19.878906 25.996094 19.957031 26.292969 C 20.035156 26.585938 20.347656 27.28125 20.980469 26.683594 C 21.515625 25.855469 20.851562 21.214844 20.851562 21.214844 C 20.851562 21.214844 20.777344 20.75 21.0625 20.714844 C 21.347656 20.6875 21.335938 20.730469 21.617188 21.785156 C 21.898438 22.839844 22.703125 25.40625 22.898438 26.136719 C 23.09375 26.871094 23.160156 27.230469 23.398438 27.3125 C 23.636719 27.394531 24.296875 27.265625 24.191406 26.289062 C 24.085938 25.3125 23.707031 23.230469 23.371094 21.949219 C 23.035156 20.667969 22.832031 20.3125 23.183594 20.136719 C 23.53125 19.960938 23.15625 19.335938 24.597656 21.15625 C 26.246094 23.046875 27.128906 24.335938 27.34375 24.441406 C 27.554688 24.546875 28.214844 24.390625 28.046875 23.8125 C 27.886719 23.230469 27.257812 22.089844 26.898438 21.5 C 26.542969 20.914062 24.65625 18.351562 24.308594 17.460938 C 23.964844 16.574219 23.640625 15.261719 24.09375 14.847656 C 24.550781 14.433594 26.019531 14.21875 26.574219 14.257812 C 27.121094 14.300781 27.75 14.214844 28.28125 13.832031 C 28.808594 13.449219 28.992188 12.777344 28.941406 12.277344 C 28.734375 11.816406 28.28125 12.429688 27.964844 12.554688 C 27.648438 12.679688 24.726562 12.457031 24.152344 12.234375 C 23.578125 12.015625 22.710938 11.507812 22.164062 11.40625 C 21.617188 11.304688 20.832031 11.292969 20.480469 10.78125 C 20.132812 10.269531 19.75 9.25 19.75 9.25 L 18.570312 6.390625 C 19.621094 6.042969 20.730469 5.863281 21.871094 5.863281 C 22.34375 5.863281 22.824219 5.894531 23.292969 5.957031 C 25.59375 6.265625 27.683594 7.308594 29.335938 8.96875 L 29.988281 9.621094 L 30.636719 8.96875 C 31.347656 8.253906 32.140625 7.65625 32.996094 7.179688 C 34.09375 6.566406 35.292969 6.160156 36.558594 5.972656 L 36.5625 5.972656 C 37.066406 5.898438 37.585938 5.863281 38.109375 5.863281 C 39.257812 5.863281 40.378906 6.046875 41.4375 6.402344 L 39.550781 10.035156 C 39.550781 10.035156 39.082031 11.015625 38.6875 11.492188 C 38.296875 11.972656 37.511719 11.917969 36.957031 11.972656 C 36.402344 12.027344 35.496094 12.453125 34.90625 12.625 C 34.3125 12.792969 31.382812 12.753906 31.078125 12.601562 C 30.773438 12.453125 30.375 11.800781 30.128906 12.246094 C 30.035156 12.738281 30.15625 13.425781 30.652344 13.851562 C 31.148438 14.277344 31.765625 14.417969 32.316406 14.425781 C 32.871094 14.433594 34.320312 14.78125 34.734375 15.230469 C 35.152344 15.679688 34.714844 16.960938 34.292969 17.816406 C 33.875 18.671875 31.769531 21.058594 31.363281 21.613281 C 30.957031 22.167969 30.230469 23.25 30.015625 23.8125 C 29.804688 24.375 30.445312 24.585938 30.664062 24.503906 C 30.886719 24.414062 31.878906 23.207031 33.683594 21.472656 C 35.28125 19.78125 34.851562 20.371094 35.183594 20.582031 C 35.515625 20.785156 35.285156 21.121094 34.839844 22.367188 C 34.390625 23.617188 33.835938 25.652344 33.644531 26.617188 C 33.453125 27.582031 34.101562 27.773438 34.34375 27.707031 C 34.589844 27.644531 34.6875 27.296875 34.945312 26.582031 C 35.203125 25.867188 36.226562 23.382812 36.601562 22.359375 C 36.972656 21.332031 36.964844 21.285156 37.246094 21.339844 C 37.527344 21.398438 37.414062 21.859375 37.414062 21.859375 C 37.414062 21.859375 36.351562 26.421875 36.808594 27.296875 C 37.386719 27.945312 37.757812 27.277344 37.863281 26.992188 C 37.964844 26.707031 38.988281 22.667969 39.070312 21.953125 C 39.15625 21.238281 39.457031 21.011719 39.835938 21.207031 C 40.214844 21.40625 40.496094 23.074219 40.632812 23.695312 C 40.765625 24.3125 41.042969 25.765625 41.101562 25.957031 C 41.15625 26.152344 41.539062 26.367188 41.78125 26.023438 C 42.027344 25.683594 41.949219 24.84375 41.949219 24.84375 C 41.949219 24.84375 42.042969 23.351562 41.503906 20.546875 C 41.503906 20.546875 43.234375 17.390625 43.167969 14.707031 C 43.167969 14.707031 43.417969 14.257812 44.382812 12.855469 L 46.253906 9.710938 C 47.710938 11.484375 48.558594 13.683594 48.65625 16.003906 C 48.78125 18.96875 47.660156 21.867188 45.578125 23.957031 L 40.808594 28.742188 " fill-opacity="1" fill-rule="nonzero"/></g><g fill="#000000" fill-opacity="1"><g transform="translate(61.791871, 32.871398)"><g><path d="M 0.59375 -8.140625 C 0.59375 -9.253906 0.785156 -10.320312 1.171875 -11.34375 C 1.566406 -12.375 2.140625 -13.273438 2.890625 -14.046875 C 3.648438 -14.816406 4.585938 -15.429688 5.703125 -15.890625 C 6.816406 -16.359375 8.09375 -16.59375 9.53125 -16.59375 C 11.519531 -16.59375 13.175781 -16.179688 14.5 -15.359375 C 15.832031 -14.535156 16.832031 -13.472656 17.5 -12.171875 L 11.765625 -10.4375 C 11.210938 -11.238281 10.457031 -11.640625 9.5 -11.640625 C 8.695312 -11.640625 8.015625 -11.332031 7.453125 -10.71875 C 6.898438 -10.113281 6.625 -9.253906 6.625 -8.140625 C 6.625 -7.023438 6.898438 -6.160156 7.453125 -5.546875 C 8.015625 -4.941406 8.695312 -4.640625 9.5 -4.640625 C 10.457031 -4.640625 11.210938 -5.046875 11.765625 -5.859375 L 17.5 -4.125 C 16.832031 -2.820312 15.832031 -1.753906 14.5 -0.921875 C 13.175781 -0.0976562 11.519531 0.3125 9.53125 0.3125 C 8.09375 0.3125 6.816406 0.0820312 5.703125 -0.375 C 4.585938 -0.84375 3.648438 -1.460938 2.890625 -2.234375 C 2.140625 -3.015625 1.566406 -3.914062 1.171875 -4.9375 C 0.785156 -5.957031 0.59375 -7.023438 0.59375 -8.140625 Z M 0.59375 -8.140625 "/></g></g></g><g fill="#000000" fill-opacity="1"><g transform="translate(79.625747, 32.871398)"><g><path d="M 17.875 0 L 11.984375 0 L 11.984375 -9.171875 C 11.984375 -9.972656 11.800781 -10.550781 11.4375 -10.90625 C 11.082031 -11.269531 10.632812 -11.453125 10.09375 -11.453125 C 9.90625 -11.453125 9.679688 -11.394531 9.421875 -11.28125 C 9.171875 -11.175781 8.914062 -11.023438 8.65625 -10.828125 C 8.394531 -10.628906 8.148438 -10.382812 7.921875 -10.09375 C 7.703125 -9.800781 7.519531 -9.484375 7.375 -9.140625 L 7.375 0 L 1.484375 0 L 1.484375 -22.609375 L 7.375 -22.609375 L 7.375 -13.875 C 7.945312 -14.757812 8.695312 -15.429688 9.625 -15.890625 C 10.5625 -16.359375 11.609375 -16.59375 12.765625 -16.59375 C 13.898438 -16.59375 14.804688 -16.394531 15.484375 -16 C 16.160156 -15.613281 16.675781 -15.125 17.03125 -14.53125 C 17.382812 -13.945312 17.613281 -13.3125 17.71875 -12.625 C 17.820312 -11.945312 17.875 -11.3125 17.875 -10.71875 Z M 17.875 0 "/></g></g></g><g fill="#000000" fill-opacity="1"><g transform="translate(98.852892, 32.871398)"><g><path d="M 6.28125 0.3125 C 5.476562 0.3125 4.722656 0.175781 4.015625 -0.09375 C 3.316406 -0.363281 2.710938 -0.726562 2.203125 -1.1875 C 1.703125 -1.65625 1.304688 -2.207031 1.015625 -2.84375 C 0.734375 -3.488281 0.59375 -4.179688 0.59375 -4.921875 C 0.59375 -5.742188 0.765625 -6.492188 1.109375 -7.171875 C 1.460938 -7.859375 1.945312 -8.445312 2.5625 -8.9375 C 3.1875 -9.4375 3.925781 -9.820312 4.78125 -10.09375 C 5.632812 -10.363281 6.582031 -10.5 7.625 -10.5 C 8.9375 -10.5 10.03125 -10.289062 10.90625 -9.875 L 10.90625 -10.375 C 10.90625 -11.132812 10.679688 -11.703125 10.234375 -12.078125 C 9.785156 -12.453125 9.066406 -12.640625 8.078125 -12.640625 C 7.148438 -12.640625 6.289062 -12.488281 5.5 -12.1875 C 4.71875 -11.882812 3.894531 -11.445312 3.03125 -10.875 L 1.328125 -14.53125 C 3.472656 -15.90625 5.921875 -16.59375 8.671875 -16.59375 C 11.273438 -16.59375 13.273438 -16.015625 14.671875 -14.859375 C 16.078125 -13.703125 16.78125 -11.96875 16.78125 -9.65625 L 16.78125 -6.5 C 16.78125 -5.945312 16.882812 -5.5625 17.09375 -5.34375 C 17.300781 -5.125 17.671875 -4.992188 18.203125 -4.953125 L 18.203125 0 C 17.671875 0.101562 17.164062 0.179688 16.6875 0.234375 C 16.21875 0.285156 15.796875 0.3125 15.421875 0.3125 C 14.367188 0.3125 13.566406 0.117188 13.015625 -0.265625 C 12.472656 -0.648438 12.117188 -1.210938 11.953125 -1.953125 L 11.828125 -2.546875 C 11.109375 -1.609375 10.269531 -0.894531 9.3125 -0.40625 C 8.363281 0.0703125 7.351562 0.3125 6.28125 0.3125 Z M 8.046875 -3.90625 C 8.398438 -3.90625 8.757812 -3.960938 9.125 -4.078125 C 9.5 -4.191406 9.832031 -4.335938 10.125 -4.515625 C 10.351562 -4.679688 10.539062 -4.863281 10.6875 -5.0625 C 10.832031 -5.257812 10.90625 -5.460938 10.90625 -5.671875 L 10.90625 -6.875 C 10.550781 -7 10.164062 -7.101562 9.75 -7.1875 C 9.34375 -7.269531 8.972656 -7.3125 8.640625 -7.3125 C 7.921875 -7.3125 7.320312 -7.132812 6.84375 -6.78125 C 6.363281 -6.425781 6.125 -5.984375 6.125 -5.453125 C 6.125 -4.992188 6.304688 -4.617188 6.671875 -4.328125 C 7.035156 -4.046875 7.492188 -3.90625 8.046875 -3.90625 Z M 8.046875 -3.90625 "/></g></g></g><g fill="#000000" fill-opacity="1"><g transform="translate(117.553692, 32.871398)"><g><path d="M 12.546875 -11.265625 C 11.410156 -11.265625 10.375 -11.140625 9.4375 -10.890625 C 8.507812 -10.648438 7.820312 -10.238281 7.375 -9.65625 L 7.375 0 L 1.484375 0 L 1.484375 -16.296875 L 6.875 -16.296875 L 6.875 -13.1875 C 7.445312 -14.28125 8.160156 -15.117188 9.015625 -15.703125 C 9.878906 -16.296875 10.804688 -16.59375 11.796875 -16.59375 C 12.191406 -16.59375 12.441406 -16.582031 12.546875 -16.5625 Z M 12.546875 -11.265625 "/></g></g></g><g fill="#000000" fill-opacity="1"><g transform="translate(130.464674, 32.871398)"><g><path d="M 1.484375 0 L 1.484375 -16.296875 L 7.375 -16.296875 L 7.375 0 Z M 1.484375 -17.65625 L 1.484375 -22.609375 L 7.375 -22.609375 L 7.375 -17.65625 Z M 1.484375 -17.65625 "/></g></g></g><g fill="#000000" fill-opacity="1"><g transform="translate(139.319692, 32.871398)"><g><path d="M 8.734375 0.3125 C 8.054688 0.3125 7.320312 0.257812 6.53125 0.15625 C 5.75 0.0507812 4.976562 -0.0820312 4.21875 -0.25 C 3.46875 -0.414062 2.738281 -0.613281 2.03125 -0.84375 C 1.332031 -1.082031 0.726562 -1.347656 0.21875 -1.640625 L 2.484375 -5.640625 C 3.617188 -5.035156 4.703125 -4.578125 5.734375 -4.265625 C 6.765625 -3.960938 7.722656 -3.8125 8.609375 -3.8125 C 9.640625 -3.8125 10.15625 -4.066406 10.15625 -4.578125 C 10.15625 -4.847656 9.945312 -5.085938 9.53125 -5.296875 C 9.125 -5.503906 8.34375 -5.75 7.1875 -6.03125 C 6.03125 -6.34375 5.054688 -6.65625 4.265625 -6.96875 C 3.484375 -7.28125 2.851562 -7.625 2.375 -8 C 1.90625 -8.382812 1.566406 -8.804688 1.359375 -9.265625 C 1.148438 -9.734375 1.046875 -10.28125 1.046875 -10.90625 C 1.046875 -11.726562 1.21875 -12.488281 1.5625 -13.1875 C 1.90625 -13.894531 2.382812 -14.503906 3 -15.015625 C 3.625 -15.535156 4.363281 -15.929688 5.21875 -16.203125 C 6.070312 -16.484375 7.003906 -16.625 8.015625 -16.625 C 9.109375 -16.625 10.28125 -16.46875 11.53125 -16.15625 C 12.78125 -15.851562 14.054688 -15.398438 15.359375 -14.796875 L 13.09375 -11.0625 C 11.9375 -11.59375 10.976562 -11.976562 10.21875 -12.21875 C 9.457031 -12.457031 8.722656 -12.578125 8.015625 -12.578125 C 7.566406 -12.578125 7.203125 -12.507812 6.921875 -12.375 C 6.640625 -12.238281 6.5 -12.023438 6.5 -11.734375 C 6.5 -11.566406 6.539062 -11.425781 6.625 -11.3125 C 6.707031 -11.207031 6.851562 -11.101562 7.0625 -11 C 7.269531 -10.894531 7.550781 -10.785156 7.90625 -10.671875 C 8.269531 -10.554688 8.722656 -10.4375 9.265625 -10.3125 C 10.503906 -10 11.546875 -9.671875 12.390625 -9.328125 C 13.234375 -8.992188 13.90625 -8.625 14.40625 -8.21875 C 14.914062 -7.820312 15.28125 -7.367188 15.5 -6.859375 C 15.71875 -6.347656 15.828125 -5.765625 15.828125 -5.109375 C 15.828125 -3.429688 15.191406 -2.109375 13.921875 -1.140625 C 12.648438 -0.171875 10.921875 0.3125 8.734375 0.3125 Z M 8.734375 0.3125 "/></g></g></g><g fill="#000000" fill-opacity="1"><g transform="translate(155.636451, 32.871398)"><g><path d="M 12.90625 -0.890625 C 12.082031 -0.546875 11.203125 -0.253906 10.265625 -0.015625 C 9.328125 0.222656 8.40625 0.34375 7.5 0.34375 C 6.832031 0.34375 6.195312 0.257812 5.59375 0.09375 C 5 -0.0703125 4.476562 -0.335938 4.03125 -0.703125 C 3.59375 -1.078125 3.242188 -1.5625 2.984375 -2.15625 C 2.722656 -2.757812 2.59375 -3.503906 2.59375 -4.390625 L 2.59375 -11.859375 L 0.59375 -11.859375 L 0.59375 -16.296875 L 2.59375 -16.296875 L 2.59375 -21.40625 L 8.484375 -21.40625 L 8.484375 -16.296875 L 11.671875 -16.296875 L 11.671875 -11.859375 L 8.484375 -11.859375 L 8.484375 -6.46875 C 8.484375 -5.9375 8.597656 -5.5625 8.828125 -5.34375 C 9.054688 -5.125 9.363281 -5.015625 9.75 -5.015625 C 10.039062 -5.015625 10.367188 -5.0625 10.734375 -5.15625 C 11.109375 -5.25 11.484375 -5.378906 11.859375 -5.546875 Z M 12.90625 -0.890625 "/></g></g></g></svg>